<svg width="300" height="300" viewBox="0 0 300 300" fill="none" xmlns="http://www.w3.org/2000/svg">
<path d="M135.809 79.9303C136.548 93.0193 139.924 113.247 139.924 113.247C139.924 113.247 135.501 101.556 132.443 94.1553C130.318 89.011 129.278 86.0536 126.833 81.0533C124.938 77.1757 123.824 75.0175 121.597 71.3205C118.596 66.3376 116.594 63.7035 113.107 59.1147L112.995 58.9672C109.791 54.751 108.135 52.2314 104.393 48.4857C100.65 44.74 98.3221 42.8173 93.9205 39.8758C90.4399 37.5499 88.3842 36.3596 84.5703 34.635C80.5237 32.8053 78.1826 32.4042 73.8424 31.6605L73.7242 31.6402C69.1173 30.8508 66.618 30.8915 61.3819 30.8915C59.4831 30.8915 55.3023 32.0873 53.5277 32.7633C49.8143 34.1778 50.8382 33.8564 47.1696 35.3836C42.5194 37.3195 40.456 39.2409 36.3232 42.1219C31.7342 45.3209 29.3584 47.4507 25.477 51.4804C20.6312 56.5113 18.4626 59.8638 14.6308 65.7054L14.5964 65.7577C10.8492 71.4702 8.70082 74.7454 6.02857 81.0533C3.17772 87.7829 1.86496 91.7915 0.792454 99.0217C-0.365848 106.83 -0.157324 111.399 0.792454 119.236C1.34782 123.819 1.50673 126.486 3.0365 130.841C5.38863 137.536 7.83686 141.081 12.7607 146.189C17.5675 151.175 21.2023 153.078 27.3318 156.288L27.347 156.296C35.7779 160.711 41.1054 162.512 50.5355 163.783C57.6285 164.738 61.7082 163.997 68.8619 163.783C77.641 163.52 82.5661 163.191 91.3024 162.285C100.548 161.327 114.865 158.916 114.865 158.916L112.995 160.039C112.995 160.039 103.188 163.904 96.9126 166.403C91.7968 168.441 88.873 169.45 83.8223 171.644C77.8889 174.221 74.3546 175.338 68.8619 178.756C64.347 181.566 62.1204 183.61 58.0157 186.992C53.4644 190.742 50.7691 192.741 46.7955 197.099C42.0688 202.284 39.5138 205.448 36.3232 211.698C33.842 216.559 32.3866 219.421 31.4611 224.8C30.2937 231.585 30.9504 235.706 32.5831 242.394C34.09 248.567 35.8527 251.817 38.9413 257.368C42.6509 264.035 45.2094 267.63 50.5355 273.09C56.0659 278.76 59.9868 281.115 66.6179 285.444C75.427 291.194 80.4081 295.026 90.5544 297.797C99.7405 300.306 105.361 300.252 114.865 299.669C120.164 299.343 123.29 299.468 128.329 297.797C133.043 296.234 135.42 294.568 139.549 291.807L139.99 291.513C145.41 287.893 148.793 285.633 152.64 280.203C155.891 275.614 155.668 276.392 157.876 271.219C159.24 268.023 161.616 260.363 161.616 260.363C161.616 260.363 163.462 248.856 163.86 242.394C164.337 234.661 164.088 230.299 163.86 222.554C163.692 216.848 163.619 213.641 163.112 207.955C162.258 198.379 159.372 183.623 159.372 183.623C159.372 183.623 161.892 191.913 163.86 197.099C166.761 204.745 168.782 208.888 172.462 216.19C175.848 222.91 177.911 226.602 181.812 233.036C184.608 237.646 185.837 240.502 189.293 244.64C193.54 249.727 196.67 251.948 202.009 255.871C206.452 259.135 209.084 260.819 213.977 263.357C217.111 264.983 218.768 266.298 222.205 267.101C226.188 268.031 227.466 268.224 231.556 268.224C234.331 268.224 237.025 267.778 239.784 267.475C244.651 266.941 247.229 265.235 251.752 263.357C257.793 260.85 261.167 259.129 266.338 255.122C272.305 250.499 274.613 248.209 279.429 242.394C282.953 238.14 285.127 234.367 288.031 229.667C291.238 224.475 292.511 221.213 294.716 215.561L294.763 215.442C296.88 210.015 297.057 208.066 298.129 202.34C299.77 193.575 300.768 187.544 299.251 178.756C298.895 176.694 298.689 175.158 298.129 173.141C296.85 168.536 295.65 166.053 293.267 161.911C290.409 156.944 288.48 154.213 284.291 150.306C280.289 146.575 277.503 145.056 272.696 142.445C267.803 139.787 265.625 139.277 260.35 138.04L259.98 137.953C255.268 136.848 251.711 136.138 246.89 135.707C240.172 135.107 236.429 134.497 229.685 134.584C223.814 134.66 220.553 134.991 214.725 135.707C208.718 136.445 205.406 137.28 199.391 137.953C194.002 138.556 185.553 139.076 185.553 139.076C185.553 139.076 192.215 137.179 196.399 135.707C202.208 133.664 205.433 132.381 210.985 129.718C217.177 126.747 221.013 125.473 227.067 122.231C231.848 119.67 234.224 117.861 238.662 114.744C243.061 111.654 245.586 109.438 249.508 105.76C252.147 103.285 253.127 101.76 255.492 99.0216L255.54 98.9664C259.116 94.8265 261.271 92.3319 263.72 87.4171C265.827 83.1901 266.532 80.4438 267.46 75.8126C268.466 70.7959 268.141 67.7817 267.46 62.7106C267.083 59.8974 265.964 55.5981 265.964 55.5981C265.964 55.5981 264.704 48.2681 262.224 44.3679C261.44 43.1346 261.203 42.188 260.354 40.9988C257.383 36.8379 256.438 34.0788 253.248 30.1429C247.768 23.3827 243.527 20.5591 236.418 15.5436C229.68 10.7903 225.655 8.3417 218.091 5.06209C214.656 3.57256 212.735 2.64722 209.115 1.69302C203.578 0.233556 200.249 0.449473 194.529 0.195657L194.141 0.178447C190.002 -0.00568565 187.548 -0.114832 183.308 0.195657C179.188 0.497401 176.843 0.684417 172.836 1.69302C168.128 2.8784 165.443 3.74974 161.242 6.18511C157.195 8.53067 155.237 10.4019 151.892 13.6719C146.207 19.229 144.264 23.6193 141.046 30.8915C137.612 38.6511 136.724 43.792 135.809 52.229C134.612 63.2745 135.184 68.8376 135.809 79.9303Z" fill="#F98D89"/>
</svg>
