<svg width="300" height="300" viewBox="0 0 300 300" fill="none" xmlns="http://www.w3.org/2000/svg">
<path d="M149.444 141.514C149.953 141.081 150.302 140.85 150.576 140.542C178.605 107.734 193.379 69.6598 194.52 26.3393C194.708 19.1866 192.257 12.3902 188.08 6.4505C183.659 0.164213 176.079 -1.44347 169.988 3.18701C164.397 7.43241 159.297 12.342 154.13 17.1266C151.754 19.3311 150.104 19.4658 147.757 16.9532C143.241 12.1302 138.583 7.37467 133.568 3.08113C127.948 -1.73226 120.331 -0.769575 115.645 5.01612C111.082 10.6382 108.48 17.1265 107.942 24.4429C106.999 37.2657 108.527 49.7614 111.412 62.2954C118.143 91.5319 129.504 118.371 149.444 141.514Z" fill="#FED763"/>
<path d="M149.921 158.486C149.412 158.92 149.063 159.151 148.79 159.459C120.761 192.267 105.987 230.341 104.846 273.661C104.658 280.814 107.109 287.61 111.285 293.55C115.707 299.836 123.287 301.444 129.378 296.813C134.969 292.568 140.069 287.658 145.236 282.874C147.612 280.669 149.261 280.535 151.609 283.047C156.125 287.87 160.783 292.626 165.798 296.919C171.417 301.733 179.035 300.77 183.721 294.984C188.284 289.362 190.886 282.874 191.424 275.557C192.366 262.735 190.839 250.239 187.954 237.705C181.222 208.459 169.862 181.629 149.921 158.486Z" fill="#FED763"/>
<path d="M138.592 149.657C138.168 149.137 137.942 148.781 137.64 148.502C105.51 119.881 68.2217 104.796 25.7956 103.631C18.7906 103.439 12.1344 105.942 6.31732 110.207C0.160825 114.722 -1.41365 122.461 3.12122 128.68C7.27898 134.389 12.0873 139.597 16.773 144.873C18.932 147.298 19.064 148.983 16.6033 151.38C11.8799 155.991 7.22241 160.747 3.01752 165.869C-1.69649 171.606 -0.753691 179.385 4.91255 184.169C10.4185 188.828 16.773 191.485 23.9383 192.034C36.4964 192.997 48.734 191.437 61.0093 188.491C89.6516 181.608 115.927 170.018 138.592 149.657Z" fill="#FED763"/>
<path d="M161.406 149.764C161.831 150.284 162.057 150.64 162.358 150.92C194.489 179.54 231.777 194.625 274.203 195.79C281.208 195.983 287.864 193.48 293.681 189.215C299.838 184.7 301.412 176.96 296.877 170.741C292.72 165.032 287.911 159.824 283.226 154.549C281.067 152.123 280.935 150.438 283.395 148.041C288.119 143.43 292.776 138.674 296.981 133.553C301.695 127.815 300.752 120.037 295.086 115.243C289.58 110.584 283.226 107.926 276.06 107.378C263.502 106.415 251.265 107.975 238.989 110.92C210.357 117.804 184.071 129.404 161.406 149.764Z" fill="#FED763"/>
</svg>
