<svg width="300" height="300" viewBox="0 0 300 300" fill="none" xmlns="http://www.w3.org/2000/svg">
<path d="M153.333 23.2643C152.025 14.1803 150 0.000976562 150 0.000976562C150 0.000976562 147.704 15.0697 146.19 24.7183C145.27 30.5871 144.882 33.9004 143.81 39.7425C141.987 49.6714 141.322 55.1127 139.048 64.9444C136.856 74.4175 136.453 80.3714 132.381 89.1771C130.927 92.3208 129.863 93.9593 128.095 96.9315C125.183 101.826 123.533 104.596 120 109.048C116.446 113.526 114.439 116.144 110 119.71C106.395 122.607 104.016 123.742 100 126.011C96.3643 128.065 94.2825 129.153 90.4762 130.857C82.7785 134.304 78.1311 135.458 70 137.642C61.9247 139.812 57.2815 140.581 49.0476 142.004C42.5657 143.125 38.8995 143.554 32.381 144.427C26.2521 145.249 22.7955 145.545 16.6667 146.366C10.1481 147.24 0 148.789 0 148.789C0 148.789 10.1481 150.339 16.6667 151.213C22.7955 152.034 26.2636 152.246 32.381 153.151C38.9159 154.118 42.5671 154.767 49.0476 156.059C57.2822 157.701 61.858 158.84 70 160.906C74.2891 161.994 76.7483 162.424 80.9524 163.814C88.7104 166.378 92.9643 168.337 100 172.537L100.026 172.553C102.679 174.137 104.184 175.035 106.667 176.899C110.06 179.446 111.746 181.17 114.762 184.169C117.491 186.883 119.104 188.36 121.429 191.439C123.063 193.603 123.824 194.935 125.238 197.255C126.819 199.848 127.685 201.321 129.048 204.04C131.187 208.309 132.112 210.907 133.682 215.313L133.81 215.671C135.795 221.244 136.657 224.467 138.095 230.211C139.689 236.578 140.225 240.234 141.429 246.689C142.871 254.423 143.492 258.795 144.762 266.56C146.896 279.605 150 300.001 150 300.001C150 300.001 152.891 279.618 154.762 266.56C155.874 258.799 156.15 254.388 157.619 246.689C158.858 240.2 159.74 236.595 161.429 230.211C162.942 224.487 163.627 221.206 165.714 215.671C167.474 211.006 168.692 208.475 170.952 204.04C172.524 200.955 173.392 199.208 175.238 196.285C176.458 194.354 177.214 193.311 178.546 191.474L178.571 191.439C180.692 188.513 181.734 186.713 184.286 184.169C184.286 184.169 187.389 181.392 189.524 179.807C191.149 178.601 192.136 178.035 193.81 176.899C196.041 175.385 197.258 174.482 199.524 173.022C202.623 171.026 204.344 169.855 207.619 168.175C211.567 166.151 213.915 165.276 218.095 163.814C221.936 162.47 224.161 161.934 228.095 160.906C232.159 159.844 234.462 159.342 238.571 158.482C243.752 157.398 246.704 157.042 251.905 156.059C257.678 154.968 260.868 154.092 266.667 153.151C272.589 152.19 275.956 151.988 281.905 151.213C288.975 150.292 300 148.789 300 148.789C300 148.789 288.975 147.287 281.905 146.366C275.956 145.591 272.603 145.294 266.667 144.427C260.886 143.584 257.643 143.107 251.905 142.004C246.672 140.998 243.771 140.269 238.571 139.096C234.475 138.173 232.159 137.735 228.095 136.673C224.161 135.645 221.984 134.958 218.095 133.765C213.985 132.504 207.619 130.373 207.619 130.373L200 126.011C197.025 124.307 196.142 123.471 193.81 121.649C192.865 120.911 192.351 120.476 191.429 119.71C188.568 117.335 186.917 116.044 184.286 113.41C182.128 111.249 180.952 109.989 179.048 107.594C177.493 105.638 176.697 104.447 175.334 102.407L175.238 102.263C173.875 100.222 173.095 99.0815 171.905 96.9315C169.903 93.3151 169.167 91.0788 167.619 87.2385C164.204 78.7661 162.75 73.8049 160.476 64.9444C157.988 55.2473 157.315 49.6314 155.714 39.7425C154.675 33.3247 154.26 29.6999 153.333 23.2643Z" fill="#008264"/>
</svg>
